<svg width="128" height="256" viewBox="0 0 128 256" fill="none" xmlns="http://www.w3.org/2000/svg">
<g clip-path="url(#clip0_402_13)">
<rect width="128" height="256" rx="5" fill="white"/>
<rect width="128" height="256" fill="#69A5FF"/>
<path d="M85.8843 271.876C84.3952 272.464 82.7503 272.599 81.0705 272.272C79.3907 271.945 77.7187 271.163 76.1773 269.985L-3.16127 208.912C-5.55768 207.102 -7.52428 204.427 -8.72523 201.344C-9.92617 198.261 -10.287 194.961 -9.74608 192.008L9.07136 92.6981C9.70742 89.3197 11.4771 86.6616 13.9911 85.3085C16.5051 83.9555 19.5574 84.0183 22.4767 85.4832C25.3959 86.9481 27.9429 89.6951 29.5574 93.1198C31.1719 96.5445 31.7215 100.366 31.0855 103.745L14.2419 192.474L85.1696 247.013C87.1517 248.491 88.8541 250.568 90.0754 252.998C91.2966 255.428 91.9856 258.11 92.0608 260.725C92.1359 263.341 91.5942 265.781 90.4996 267.757C89.405 269.733 87.8034 271.162 85.8843 271.876Z" fill="#85B6FF"/>
<path d="M156.884 248.876C155.395 249.464 153.75 249.599 152.07 249.272C150.391 248.945 148.719 248.163 147.177 246.985L67.8387 185.912C65.4423 184.102 63.4757 181.427 62.2748 178.344C61.0738 175.261 60.713 171.961 61.2539 169.008L80.0714 69.6981C80.7074 66.3197 82.4771 63.6616 84.9911 62.3085C87.5051 60.9555 90.5574 61.0183 93.4767 62.4832C96.3959 63.9481 98.9429 66.6951 100.557 70.1198C102.172 73.5445 102.722 77.3665 102.085 80.7449L85.2419 169.474L156.17 224.013C158.152 225.491 159.854 227.568 161.075 229.998C162.297 232.428 162.986 235.11 163.061 237.725C163.136 240.341 162.594 242.781 161.5 244.757C160.405 246.733 158.803 248.162 156.884 248.876Z" fill="#85B6FF"/>
</g>
<defs>
<clipPath id="clip0_402_13">
<rect width="128" height="256" rx="5" fill="white"/>
</clipPath>
</defs>
</svg>
