<svg width="128" height="256" viewBox="0 0 128 256" fill="none" xmlns="http://www.w3.org/2000/svg">
<g clip-path="url(#clip0_402_7)">
<rect width="128" height="256" rx="5" fill="white"/>
<rect width="128" height="256" fill="#42A652"/>
<path d="M19.515 88.6599C-26.9683 101.123 -54.803 149.352 -42.3401 195.835C-29.8771 242.318 18.3516 270.153 64.8348 257.69C111.318 245.227 139.153 196.998 126.69 150.515C114.227 104.032 65.9982 76.1969 19.515 88.6599ZM60.3028 240.787C23.0317 250.78 -15.4441 228.574 -25.4371 191.303C-35.4301 154.032 -13.2242 115.556 24.0469 105.563C61.318 95.5699 99.7938 117.776 109.787 155.047C119.78 192.318 97.5739 230.794 60.3028 240.787ZM35.0707 129.784L22.3934 133.183L35.9894 183.892L87.1883 199.154L91.0037 186.354L46.8538 173.732L35.0707 129.784Z" fill="#77BF82"/>
</g>
<defs>
<clipPath id="clip0_402_7">
<rect width="128" height="256" rx="5" fill="white"/>
</clipPath>
</defs>
</svg>
