<svg width="128" height="256" viewBox="0 0 128 256" fill="none" xmlns="http://www.w3.org/2000/svg">
<g clip-path="url(#clip0_401_2)">
<rect width="128" height="256" rx="5" fill="white"/>
<rect width="128" height="256" fill="#B75555"/>
<path d="M36.414 48.075C37.9046 47.4873 39.4642 47.3768 40.9782 47.7517C42.4921 48.1266 43.922 48.9773 45.1626 50.2413L108.949 115.755C110.882 117.697 112.267 120.537 112.867 123.791C113.467 127.044 113.246 130.51 112.241 133.595L77.8581 237.309C76.6922 240.837 74.5892 243.589 72.0116 244.959C69.4341 246.329 66.5931 246.205 64.1137 244.615C61.6343 243.024 59.7196 240.097 58.7908 236.477C57.862 232.857 57.9951 228.842 59.161 225.313L89.9097 132.649L32.8749 74.1437C31.2732 72.557 30.0342 70.348 29.3045 67.7782C28.5747 65.2083 28.3847 62.3851 28.7571 59.6427C29.1294 56.9003 30.0484 54.3534 31.4053 52.3034C32.7623 50.2533 34.5004 48.786 36.414 48.075Z" fill="#CF7575"/>
<path d="M-29.0929 73.5479C-27.6022 72.9602 -26.0426 72.8497 -24.5287 73.2246C-23.0147 73.5995 -21.5849 74.4502 -20.3442 75.7142L43.4426 141.228C45.3752 143.17 46.7599 146.01 47.3602 149.264C47.9606 152.517 47.7393 155.983 46.7342 159.068L12.3513 262.782C11.1854 266.31 9.08238 269.062 6.50481 270.432C3.92724 271.802 1.08627 271.678 -1.39312 270.088C-3.87251 268.497 -5.78722 265.57 -6.71604 261.95C-7.64485 258.33 -7.51169 254.315 -6.34584 250.786L24.4029 158.122L-32.632 99.6166C-34.2336 98.0299 -35.4726 95.8209 -36.2024 93.2511C-36.9321 90.6812 -37.1221 87.858 -36.7498 85.1156C-36.3775 82.3732 -35.4585 79.8263 -34.1015 77.7763C-32.7446 75.7262 -31.0065 74.2589 -29.0929 73.5479Z" fill="#CF7575"/>
</g>
<defs>
<clipPath id="clip0_401_2">
<rect width="128" height="256" rx="5" fill="white"/>
</clipPath>
</defs>
</svg>
