<svg width="128" height="256" viewBox="0 0 128 256" fill="none" xmlns="http://www.w3.org/2000/svg">
<rect width="128" height="256" rx="5" fill="white"/>
<path d="M64 68C30.863 68 4 94.863 4 128C4 161.137 30.863 188 64 188C97.137 188 124 161.137 124 128C124 94.863 97.137 68 64 68ZM100.77 164.77C91.6521 173.86 79.477 179.23 66.6164 179.834C53.7559 180.437 41.1312 176.231 31.2023 168.035C21.2735 159.839 14.7517 148.24 12.9077 135.498C11.0638 122.756 14.0298 109.784 21.2278 99.1094C28.4258 88.4348 39.3402 80.8225 51.8443 77.7556C64.3484 74.6887 77.5464 76.3869 88.8668 82.5195C100.187 88.652 108.819 98.7796 113.08 110.929C117.341 123.078 116.926 136.378 111.917 148.238C109.306 154.418 105.52 160.032 100.77 164.77Z" fill="#F2F2F2"/>
<path d="M38 114H48V124H38V114ZM80 114H90V124H80V114ZM64 136C58.1673 136.007 52.5753 138.327 48.451 142.451C44.3266 146.575 42.0066 152.167 42 158H50C50 154.287 51.475 150.726 54.1005 148.101C56.726 145.475 60.287 144 64 144C67.713 144 71.274 145.475 73.8995 148.101C76.525 150.726 78 154.287 78 158H86C85.9934 152.167 83.6734 146.575 79.549 142.451C75.4247 138.327 69.8327 136.007 64 136V136Z" fill="#F2F2F2"/>
</svg>
